# xmcd CD database file
#
# Track frame offsets:
#	187
#	21702
#	35180
#	60942
#	76140
#	101710
#	119115
#	148862
#	166200
#	191987
#
# Disc length: 2856 seconds
#
# Revision: 0
# Processed by: cddbd v1.4PL0 Copyright (c) Steve Scherf et al.
# Submitted via: NeoAudio 9.9.9
#
DISCID=950b260a
DTITLE=Johnny Hodges and Wild Bill Davis - In A Mellow Tone
DYEAR=1966
DGENRE=Jazz
TTITLE0=Just Squeeze Me
TTITLE1=Paper Moon
TTITLE2=Taffy
TTITLE3=Good Queen Bess
TTITLE4=L.B. Blues
TTITLE5=In A Mellow Tone
TTITLE6=Rockville
TTITLE7=I'll Always Love You
TTITLE8=It Don't Mean A Thing
TTITLE9=Belle Of The Belmont
EXTD=YEAR: 1966
EXTT0=
EXTT1=
EXTT2=
EXTT3=
EXTT4=
EXTT5=
EXTT6=
EXTT7=
EXTT8=
EXTT9=
PLAYORDER=
